<?xml version="1.0" encoding="UTF-8"?>
<svg xmlns="http://www.w3.org/2000/svg" xmlns:xlink="http://www.w3.org/1999/xlink" width="0px" height="10px" viewBox="0 0 19 10" version="1.1">
<g id="surface1">
<path style=" stroke:none;fill-rule:nonzero;fill:rgb(98.823529%,70.980392%,7.843137%);fill-opacity:1;" d="M 3.488281 4.921875 C 3.128906 5.558594 3.34375 6.367188 3.964844 6.734375 C 4.585938 7.101562 5.378906 6.886719 5.738281 6.25 C 6.097656 5.617188 5.886719 4.804688 5.265625 4.4375 L 5.234375 4.421875 C 4.941406 4.25 4.636719 4.105469 4.320312 3.976562 C 4.023438 3.859375 3.738281 3.722656 3.460938 3.5625 C 2.730469 3.027344 2.460938 2.050781 2.808594 1.207031 C 3.152344 0.363281 4.027344 -0.125 4.910156 0.03125 C 5.792969 0.1875 6.453125 0.949219 6.5 1.863281 L 5.742188 1.863281 C 5.679688 1.238281 5.15625 0.773438 4.542969 0.796875 C 3.929688 0.824219 3.441406 1.332031 3.429688 1.960938 C 3.429688 2.367188 3.636719 2.746094 3.976562 2.960938 C 4.304688 3.148438 4.652344 3.304688 5.007812 3.433594 L 5.375 3.578125 C 6.453125 3.984375 7.007812 5.203125 6.621094 6.308594 C 6.234375 7.414062 5.050781 7.996094 3.964844 7.617188 C 2.878906 7.238281 2.289062 6.039062 2.644531 4.921875 "/>
<path style=" stroke:none;fill-rule:nonzero;fill:rgb(63.921569%,14.901961%,21.960784%);fill-opacity:1;" d="M 3.429688 3.53125 C 3.226562 3.375 3.054688 3.175781 2.925781 2.949219 L 2.929688 2.949219 C 1.640625 3.828125 1.199219 5.550781 1.898438 6.960938 C 2.597656 8.375 4.21875 9.03125 5.675781 8.496094 C 7.132812 7.957031 7.964844 6.394531 7.621094 4.851562 L 7.578125 4.859375 L 5.691406 4.859375 L 5.691406 5.617188 L 6.9375 5.617188 L 6.9375 5.625 C 6.90625 6.761719 6.089844 7.714844 4.996094 7.894531 C 3.898438 8.078125 2.828125 7.4375 2.449219 6.367188 C 2.066406 5.300781 2.484375 4.109375 3.4375 3.527344 "/>
<path style=" stroke:none;fill-rule:nonzero;fill:rgb(63.921569%,14.901961%,21.960784%);fill-opacity:1;" d="M 3.621094 2.597656 C 3.714844 2.742188 3.839844 2.867188 3.984375 2.960938 C 3.984375 2.960938 4.191406 3.082031 4.472656 3.210938 L 4.460938 3.199219 C 4.515625 3.195312 4.570312 3.195312 4.625 3.195312 C 5.226562 3.195312 5.804688 3.433594 6.238281 3.863281 L 6.746094 3.285156 C 5.910156 2.480469 4.710938 2.214844 3.625 2.597656 "/>
<path style=" stroke:none;fill-rule:nonzero;fill:rgb(98.823529%,70.980392%,7.843137%);fill-opacity:1;" d="M 7.746094 8.507812 C 7.464844 8.585938 7.164062 8.613281 6.890625 8.707031 C 7.355469 8.300781 7.328125 7.671875 7.636719 7.199219 C 7.734375 7.0625 7.816406 6.921875 7.929688 6.792969 C 7.742188 7.179688 7.824219 7.679688 7.609375 8.050781 C 7.519531 8.203125 7.40625 8.34375 7.277344 8.457031 C 7.316406 8.457031 7.355469 8.417969 7.394531 8.394531 C 7.742188 8.035156 8.199219 7.9375 8.578125 7.648438 C 8.734375 7.527344 8.859375 7.367188 8.9375 7.1875 C 8.867188 7.777344 8.289062 8.332031 7.746094 8.511719 Z M 7.746094 8.507812 "/>
<path style=" stroke:none;fill-rule:nonzero;fill:rgb(98.823529%,70.980392%,7.843137%);fill-opacity:1;" d="M 9.007812 6.113281 C 8.835938 6.363281 8.628906 6.59375 8.46875 6.847656 C 8.488281 6.648438 8.511719 6.398438 8.433594 6.210938 C 8.300781 5.800781 8.1875 5.386719 8.148438 4.9375 L 8.152344 4.765625 C 8.253906 5.222656 8.695312 5.539062 8.667969 6.054688 C 8.675781 6.179688 8.636719 6.285156 8.617188 6.394531 L 8.625 6.402344 L 8.644531 6.378906 C 8.710938 6.125 8.742188 5.863281 8.84375 5.625 C 8.988281 5.289062 9.171875 4.945312 9.097656 4.539062 C 9.316406 5.019531 9.25 5.664062 9.011719 6.113281 Z M 9.007812 6.113281 "/>
<path style=" stroke:none;fill-rule:nonzero;fill:rgb(98.823529%,70.980392%,7.843137%);fill-opacity:1;" d="M 8.738281 3.519531 C 9.023438 3.917969 9.089844 4.554688 8.878906 5.011719 C 8.800781 5.210938 8.742188 5.417969 8.714844 5.628906 C 8.699219 5.59375 8.695312 5.542969 8.683594 5.5 C 8.566406 5.054688 8.152344 4.734375 7.980469 4.308594 C 7.925781 4.171875 7.882812 4.027344 7.855469 3.878906 C 8.039062 4.222656 8.488281 4.402344 8.609375 4.78125 C 8.660156 4.878906 8.660156 4.996094 8.6875 5.101562 C 8.691406 5.101562 8.695312 5.101562 8.699219 5.097656 C 8.699219 5.097656 8.703125 5.09375 8.703125 5.089844 C 8.652344 4.695312 8.660156 4.292969 8.714844 3.902344 C 8.714844 3.691406 8.695312 3.488281 8.578125 3.324219 C 8.652344 3.371094 8.6875 3.453125 8.738281 3.519531 Z M 8.738281 3.519531 "/>
<path style=" stroke:none;fill-rule:nonzero;fill:rgb(98.823529%,70.980392%,7.843137%);fill-opacity:1;" d="M 8.53125 3.441406 C 8.609375 3.792969 8.5 4.132812 8.566406 4.488281 L 8.566406 4.492188 C 8.378906 4.117188 7.980469 3.9375 7.710938 3.640625 C 7.550781 3.460938 7.484375 3.246094 7.445312 3.015625 C 7.601562 3.398438 8.019531 3.484375 8.261719 3.808594 C 8.34375 3.882812 8.367188 3.988281 8.421875 4.070312 L 8.429688 4.0625 C 8.289062 3.757812 8.242188 3.417969 8.148438 3.09375 C 8.09375 2.945312 8 2.816406 7.871094 2.726562 C 8.191406 2.792969 8.464844 3.132812 8.53125 3.441406 Z M 8.53125 3.441406 "/>
<path style=" stroke:none;fill-rule:nonzero;fill:rgb(98.823529%,70.980392%,7.843137%);fill-opacity:1;" d="M 7.683594 2.636719 C 7.925781 2.855469 8.03125 3.140625 8.101562 3.433594 L 8.140625 3.527344 C 7.789062 3.265625 7.488281 2.941406 7.257812 2.566406 L 6.984375 2.285156 C 7.222656 2.390625 7.480469 2.449219 7.683594 2.636719 Z M 7.683594 2.636719 "/>
<path style=" stroke:none;fill-rule:nonzero;fill:rgb(98.823529%,70.980392%,7.843137%);fill-opacity:1;" d="M 2.199219 2.332031 C 1.960938 2.546875 1.792969 2.820312 1.613281 3.070312 C 1.457031 3.273438 1.25 3.40625 1.070312 3.578125 C 1.167969 3.371094 1.171875 3.125 1.3125 2.933594 C 1.507812 2.582031 1.875 2.460938 2.199219 2.328125 Z M 2.199219 2.332031 "/>
<path style=" stroke:none;fill-rule:nonzero;fill:rgb(98.823529%,70.980392%,7.843137%);fill-opacity:1;" d="M 0.886719 3.082031 C 0.996094 2.9375 1.148438 2.832031 1.320312 2.785156 C 0.996094 3.011719 1.015625 3.417969 0.914062 3.757812 C 0.882812 3.882812 0.824219 3.996094 0.796875 4.125 L 0.804688 4.132812 C 0.863281 3.980469 0.957031 3.84375 1.070312 3.734375 C 1.300781 3.515625 1.640625 3.382812 1.753906 3.058594 C 1.746094 3.507812 1.382812 3.855469 1.035156 4.105469 C 0.890625 4.234375 0.753906 4.382812 0.675781 4.546875 C 0.667969 4.4375 0.691406 4.324219 0.683594 4.203125 C 0.644531 3.8125 0.617188 3.367188 0.886719 3.082031 Z M 0.886719 3.082031 "/>
<path style=" stroke:none;fill-rule:nonzero;fill:rgb(98.823529%,70.980392%,7.843137%);fill-opacity:1;" d="M 0.234375 4.410156 C 0.222656 4.015625 0.382812 3.695312 0.609375 3.402344 C 0.613281 3.398438 0.621094 3.390625 0.628906 3.390625 C 0.382812 3.777344 0.585938 4.261719 0.574219 4.699219 L 0.542969 5.148438 C 0.546875 5.152344 0.546875 5.164062 0.558594 5.160156 C 0.570312 5.109375 0.578125 5.058594 0.585938 5.003906 C 0.644531 4.644531 0.953125 4.386719 1.222656 4.136719 C 1.28125 4.074219 1.328125 4.003906 1.359375 3.929688 C 1.335938 4.109375 1.285156 4.289062 1.210938 4.457031 C 1 4.875 0.613281 5.214844 0.542969 5.691406 C 0.507812 5.234375 0.207031 4.894531 0.234375 4.410156 Z M 0.234375 4.410156 "/>
<path style=" stroke:none;fill-rule:nonzero;fill:rgb(98.823529%,70.980392%,7.843137%);fill-opacity:1;" d="M 0.046875 4.96875 C 0.0664062 4.84375 0.101562 4.722656 0.148438 4.605469 C 0.046875 5.125 0.390625 5.5 0.5 5.953125 C 0.550781 6.121094 0.558594 6.304688 0.625 6.460938 C 0.632812 6.464844 0.636719 6.457031 0.640625 6.453125 C 0.476562 5.972656 0.714844 5.527344 0.960938 5.152344 C 1.015625 5.046875 1.058594 4.9375 1.082031 4.820312 C 1.109375 5.035156 1.054688 5.285156 1.023438 5.511719 C 0.964844 5.796875 0.878906 6.070312 0.800781 6.347656 C 0.75 6.519531 0.761719 6.71875 0.789062 6.898438 L 0.765625 6.878906 C 0.585938 6.542969 0.234375 6.28125 0.128906 5.914062 C 0.0429688 5.625 -0.0117188 5.285156 0.046875 4.964844 Z M 0.046875 4.96875 "/>
<path style=" stroke:none;fill-rule:nonzero;fill:rgb(98.823529%,70.980392%,7.843137%);fill-opacity:1;" d="M 0.0273438 5.988281 C 0.0664062 6.539062 0.648438 6.828125 0.917969 7.289062 C 0.980469 7.378906 1.039062 7.484375 1.121094 7.5625 C 1.109375 7.503906 1.054688 7.453125 1.035156 7.394531 C 0.941406 7.191406 0.902344 6.964844 0.929688 6.742188 C 0.957031 6.460938 1.074219 6.199219 1.027344 5.902344 C 1.261719 6.421875 1.191406 7.074219 1.324219 7.640625 C 1.355469 7.761719 1.425781 7.871094 1.472656 7.992188 C 0.988281 7.652344 0.324219 7.332031 0.109375 6.710938 C 0.0195312 6.496094 0.0078125 6.230469 0.0273438 5.988281 Z M 0.0273438 5.988281 "/>
<path style=" stroke:none;fill-rule:nonzero;fill:rgb(98.823529%,70.980392%,7.843137%);fill-opacity:1;" d="M 0.320312 7.253906 C 0.589844 7.878906 1.269531 7.933594 1.722656 8.3125 C 1.804688 8.386719 1.894531 8.449219 1.992188 8.5 L 1.996094 8.492188 C 1.894531 8.394531 1.773438 8.289062 1.699219 8.160156 C 1.433594 7.785156 1.527344 7.253906 1.328125 6.847656 C 1.507812 7.058594 1.664062 7.296875 1.78125 7.550781 C 1.945312 7.960938 2.007812 8.421875 2.386719 8.734375 C 1.976562 8.597656 1.5 8.636719 1.140625 8.378906 C 0.746094 8.132812 0.394531 7.714844 0.320312 7.253906 Z M 0.320312 7.253906 "/>
<path style=" stroke:none;fill-rule:nonzero;fill:rgb(98.823529%,70.980392%,7.843137%);fill-opacity:1;" d="M 1.015625 8.421875 C 1.449219 8.925781 2.160156 8.757812 2.738281 8.890625 C 2.820312 8.902344 2.898438 8.9375 2.984375 8.921875 C 2.914062 8.878906 2.820312 8.882812 2.742188 8.84375 C 2.289062 8.679688 2.222656 8.175781 1.976562 7.839844 C 2.289062 8.054688 2.554688 8.339844 2.847656 8.621094 C 3.054688 8.804688 3.304688 8.894531 3.570312 8.949219 C 3.507812 8.972656 3.425781 8.964844 3.355469 8.984375 C 2.878906 9.101562 2.351562 9.296875 1.847656 9.121094 C 1.519531 9.015625 1.179688 8.753906 1.015625 8.421875 Z M 1.015625 8.421875 "/>
<path style=" stroke:none;fill-rule:nonzero;fill:rgb(63.921569%,14.901961%,21.960784%);fill-opacity:1;" d="M 6.914062 9.601562 C 6.425781 9.785156 5.914062 9.589844 5.53125 9.292969 C 5.375 9.195312 5.242188 9.046875 5.039062 9.0625 C 4.972656 9.058594 4.902344 9.066406 4.835938 9.082031 C 5.21875 9.265625 5.566406 9.511719 5.867188 9.816406 C 5.8125 9.878906 5.75 9.933594 5.679688 9.988281 C 5.375 9.652344 5.039062 9.332031 4.664062 9.144531 C 4.589844 9.160156 4.515625 9.191406 4.453125 9.234375 C 4.128906 9.4375 3.84375 9.695312 3.613281 10 L 3.417969 9.835938 C 3.714844 9.519531 4.066406 9.265625 4.457031 9.078125 C 4.082031 8.957031 3.839844 9.277344 3.558594 9.4375 C 3.226562 9.675781 2.753906 9.78125 2.355469 9.621094 C 2.128906 9.542969 1.929688 9.402344 1.777344 9.21875 C 2.089844 9.4375 2.554688 9.464844 2.914062 9.316406 C 3.390625 9.105469 3.886719 8.835938 4.460938 8.964844 C 4.554688 8.964844 4.640625 9.058594 4.726562 8.980469 C 5.160156 8.875 5.617188 8.933594 6.011719 9.144531 L 6.390625 9.300781 C 6.742188 9.433594 7.199219 9.398438 7.503906 9.179688 C 7.347656 9.371094 7.144531 9.515625 6.914062 9.597656 Z M 6.914062 9.601562 "/>
<path style=" stroke:none;fill-rule:nonzero;fill:rgb(98.823529%,70.980392%,7.843137%);fill-opacity:1;" d="M 7.441406 9.082031 C 6.890625 9.292969 6.335938 9.035156 5.808594 8.945312 L 5.707031 8.933594 L 5.707031 8.929688 C 5.960938 8.871094 6.203125 8.796875 6.40625 8.609375 C 6.699219 8.320312 6.964844 8.019531 7.292969 7.792969 C 7.046875 8.113281 7.023438 8.566406 6.621094 8.769531 C 6.523438 8.835938 6.394531 8.847656 6.292969 8.898438 C 6.4375 8.902344 6.574219 8.851562 6.71875 8.835938 C 7.257812 8.746094 7.875 8.835938 8.25 8.367188 C 8.113281 8.695312 7.761719 8.96875 7.441406 9.082031 Z M 7.441406 9.082031 "/>
<path style=" stroke:none;fill-rule:nonzero;fill:rgb(98.823529%,70.980392%,7.843137%);fill-opacity:1;" d="M 8.4375 7.503906 C 8.222656 7.648438 8 7.78125 7.792969 7.945312 L 7.792969 7.925781 C 8.113281 7.386719 7.957031 6.636719 8.152344 6.042969 L 8.226562 5.839844 C 8.1875 6.214844 8.34375 6.53125 8.332031 6.902344 C 8.320312 7.117188 8.253906 7.328125 8.132812 7.507812 L 8.15625 7.507812 C 8.3125 7.296875 8.433594 7.074219 8.617188 6.875 C 8.902344 6.59375 9.1875 6.308594 9.226562 5.917969 C 9.320312 6.566406 8.964844 7.136719 8.4375 7.503906 Z M 8.4375 7.503906 "/>
<path style=" stroke:none;fill-rule:evenodd;fill:rgb(63.921569%,14.901961%,21.960784%);fill-opacity:1;" d="M 4.601562 5.992188 L 4.660156 5.992188 L 4.660156 7.550781 L 4.601562 7.550781 Z M 4.601562 5.992188 "/>
<path style=" stroke:none;fill-rule:evenodd;fill:rgb(63.921569%,14.901961%,21.960784%);fill-opacity:1;" d="M 4.269531 5.839844 L 4.3125 5.882812 L 3.234375 6.984375 L 3.191406 6.941406 Z M 4.269531 5.839844 "/>
<path style=" stroke:none;fill-rule:evenodd;fill:rgb(63.921569%,14.901961%,21.960784%);fill-opacity:1;" d="M 4.167969 5.515625 L 4.167969 5.574219 L 2.640625 5.574219 L 2.640625 5.511719 Z M 4.167969 5.515625 "/>
<path style=" stroke:none;fill-rule:evenodd;fill:rgb(63.921569%,14.901961%,21.960784%);fill-opacity:1;" d="M 4.3125 5.214844 L 4.269531 5.257812 L 3.191406 4.15625 L 3.234375 4.113281 Z M 4.3125 5.214844 "/>
<path style=" stroke:none;fill-rule:evenodd;fill:rgb(63.921569%,14.901961%,21.960784%);fill-opacity:1;" d="M 4.660156 5.085938 L 4.601562 5.085938 L 4.601562 3.527344 L 4.664062 3.527344 Z M 4.660156 5.085938 "/>
<path style=" stroke:none;fill-rule:evenodd;fill:rgb(63.921569%,14.901961%,21.960784%);fill-opacity:1;" d="M 4.964844 5.234375 L 4.921875 5.191406 L 6.003906 4.089844 L 6.046875 4.132812 Z M 4.964844 5.234375 "/>
<path style=" stroke:none;fill-rule:evenodd;fill:rgb(63.921569%,14.901961%,21.960784%);fill-opacity:1;" d="M 5.085938 5.582031 L 5.082031 5.519531 L 6.609375 5.515625 L 6.609375 5.578125 Z M 5.085938 5.582031 "/>
<path style=" stroke:none;fill-rule:evenodd;fill:rgb(63.921569%,14.901961%,21.960784%);fill-opacity:1;" d="M 4.90625 5.898438 L 4.949219 5.855469 L 6.03125 6.957031 L 5.988281 7 Z M 4.90625 5.898438 "/>
<path style=" stroke:none;fill-rule:evenodd;fill:rgb(63.921569%,14.901961%,21.960784%);fill-opacity:1;" d="M 5.199219 3.984375 C 6.042969 4.304688 6.46875 5.261719 6.15625 6.121094 C 5.839844 6.980469 4.90625 7.417969 4.0625 7.097656 C 3.222656 6.777344 2.792969 5.820312 3.109375 4.960938 C 3.421875 4.101562 4.359375 3.664062 5.199219 3.984375 Z M 5.175781 4.050781 C 5.980469 4.359375 6.390625 5.273438 6.089844 6.09375 C 5.789062 6.917969 4.894531 7.335938 4.089844 7.027344 C 3.285156 6.722656 2.875 5.808594 3.175781 4.988281 C 3.476562 4.164062 4.371094 3.746094 5.175781 4.050781 Z M 5.175781 4.050781 "/>
<path style=" stroke:none;fill-rule:evenodd;fill:rgb(63.921569%,14.901961%,21.960784%);fill-opacity:1;" d="M 5.070312 4.34375 C 5.714844 4.589844 6.042969 5.324219 5.804688 5.988281 C 5.5625 6.648438 4.839844 6.984375 4.191406 6.738281 C 3.546875 6.488281 3.214844 5.753906 3.457031 5.09375 C 3.574219 4.773438 3.808594 4.515625 4.113281 4.375 C 4.414062 4.234375 4.757812 4.222656 5.070312 4.34375 Z M 5.042969 4.410156 C 5.65625 4.644531 5.964844 5.339844 5.738281 5.964844 C 5.507812 6.585938 4.828125 6.90625 4.21875 6.671875 C 3.605469 6.4375 3.296875 5.742188 3.523438 5.117188 C 3.753906 4.492188 4.433594 4.175781 5.042969 4.410156 Z M 5.042969 4.410156 "/>
<path style=" stroke:none;fill-rule:evenodd;fill:rgb(63.921569%,14.901961%,21.960784%);fill-opacity:1;" d="M 4.941406 4.6875 C 5.40625 4.863281 5.636719 5.386719 5.464844 5.859375 C 5.292969 6.332031 4.78125 6.570312 4.320312 6.394531 C 3.859375 6.21875 3.625 5.691406 3.796875 5.222656 C 3.96875 4.75 4.480469 4.511719 4.941406 4.6875 Z M 4.921875 4.75 C 5.347656 4.914062 5.566406 5.398438 5.40625 5.835938 C 5.246094 6.273438 4.769531 6.496094 4.339844 6.332031 C 3.914062 6.167969 3.695312 5.683594 3.855469 5.246094 C 3.933594 5.035156 4.089844 4.867188 4.289062 4.773438 C 4.488281 4.679688 4.714844 4.671875 4.921875 4.75 Z M 4.921875 4.75 "/>
<path style=" stroke:none;fill-rule:evenodd;fill:rgb(63.921569%,14.901961%,21.960784%);fill-opacity:1;" d="M 4.800781 5.074219 C 5.050781 5.171875 5.179688 5.457031 5.082031 5.714844 C 4.988281 5.96875 4.710938 6.101562 4.460938 6.003906 C 4.207031 5.90625 4.082031 5.621094 4.175781 5.367188 C 4.21875 5.242188 4.3125 5.144531 4.429688 5.089844 C 4.546875 5.035156 4.679688 5.03125 4.800781 5.074219 Z M 4.777344 5.144531 C 4.992188 5.226562 5.097656 5.46875 5.019531 5.6875 C 4.9375 5.90625 4.699219 6.019531 4.484375 5.9375 C 4.269531 5.855469 4.160156 5.613281 4.242188 5.390625 C 4.28125 5.285156 4.359375 5.203125 4.457031 5.15625 C 4.558594 5.109375 4.671875 5.105469 4.777344 5.144531 Z M 4.777344 5.144531 "/>
<path style=" stroke:none;fill-rule:evenodd;fill:rgb(63.921569%,14.901961%,21.960784%);fill-opacity:1;" d="M 5.578125 3.738281 C 6.5625 4.292969 6.933594 5.546875 6.410156 6.542969 C 5.890625 7.539062 4.667969 7.894531 3.683594 7.34375 C 2.699219 6.789062 2.328125 5.535156 2.851562 4.539062 C 3.371094 3.542969 4.597656 3.1875 5.578125 3.738281 Z M 5.542969 3.804688 C 6.492188 4.335938 6.851562 5.546875 6.347656 6.503906 C 5.84375 7.460938 4.664062 7.808594 3.71875 7.277344 C 2.769531 6.746094 2.410156 5.535156 2.914062 4.574219 C 3.417969 3.617188 4.597656 3.273438 5.542969 3.804688 Z M 5.542969 3.804688 "/>
<path style=" stroke:none;fill-rule:nonzero;fill:rgb(63.921569%,14.901961%,21.960784%);fill-opacity:1;" d="M 5.816406 6.503906 C 5.816406 6.515625 5.816406 6.539062 5.816406 6.546875 C 5.828125 6.550781 5.839844 6.554688 5.851562 6.550781 C 5.875 6.539062 5.894531 6.515625 5.90625 6.492188 C 5.914062 6.480469 5.917969 6.464844 5.917969 6.449219 L 5.902344 6.402344 C 5.898438 6.382812 5.890625 6.351562 5.875 6.347656 C 5.875 6.34375 5.882812 6.335938 5.882812 6.328125 C 5.878906 6.3125 5.847656 6.316406 5.832031 6.328125 C 5.820312 6.34375 5.828125 6.351562 5.828125 6.359375 C 5.828125 6.382812 5.824219 6.40625 5.816406 6.429688 C 5.808594 6.445312 5.789062 6.464844 5.789062 6.484375 C 5.792969 6.496094 5.804688 6.503906 5.816406 6.503906 Z M 4.78125 6.371094 L 4.785156 6.382812 C 4.785156 6.382812 4.789062 6.386719 4.789062 6.386719 C 4.804688 6.402344 4.824219 6.371094 4.800781 6.367188 C 4.800781 6.367188 4.792969 6.367188 4.792969 6.367188 C 4.789062 6.367188 4.785156 6.367188 4.78125 6.371094 Z M 4.796875 6.339844 C 4.785156 6.347656 4.78125 6.355469 4.796875 6.363281 Z M 4.542969 6.148438 C 4.527344 6.164062 4.53125 6.15625 4.523438 6.160156 C 4.515625 6.164062 4.523438 6.171875 4.515625 6.179688 C 4.507812 6.191406 4.507812 6.1875 4.507812 6.191406 C 4.511719 6.199219 4.515625 6.203125 4.519531 6.203125 C 4.535156 6.207031 4.546875 6.203125 4.5625 6.199219 C 4.570312 6.191406 4.566406 6.183594 4.570312 6.175781 L 4.578125 6.167969 C 4.574219 6.160156 4.570312 6.152344 4.5625 6.152344 C 4.558594 6.148438 4.550781 6.148438 4.542969 6.148438 Z M 5.148438 6.082031 L 5.148438 6.121094 C 5.167969 6.117188 5.1875 6.109375 5.207031 6.101562 C 5.210938 6.097656 5.222656 6.09375 5.230469 6.097656 C 5.234375 6.101562 5.234375 6.105469 5.230469 6.113281 C 5.222656 6.125 5.214844 6.132812 5.207031 6.144531 C 5.191406 6.164062 5.164062 6.164062 5.144531 6.183594 C 5.132812 6.195312 5.128906 6.207031 5.117188 6.21875 C 5.109375 6.226562 5.101562 6.234375 5.09375 6.238281 C 5.085938 6.246094 5.09375 6.25 5.078125 6.257812 L 5.085938 6.242188 C 5.082031 6.242188 5.070312 6.242188 5.066406 6.234375 C 5.0625 6.226562 5.0625 6.222656 5.066406 6.214844 C 5.066406 6.195312 5.074219 6.175781 5.078125 6.15625 C 5.085938 6.152344 5.09375 6.148438 5.105469 6.148438 L 5.101562 6.160156 C 5.109375 6.160156 5.113281 6.160156 5.121094 6.15625 C 5.132812 6.152344 5.140625 6.128906 5.148438 6.121094 L 5.117188 6.132812 C 5.125 6.113281 5.136719 6.097656 5.148438 6.082031 Z M 4.589844 6.144531 C 4.582031 6.167969 4.59375 6.160156 4.601562 6.167969 C 4.605469 6.171875 4.609375 6.175781 4.609375 6.183594 L 4.59375 6.1875 L 4.585938 6.199219 L 4.574219 6.210938 L 4.605469 6.21875 C 4.589844 6.226562 4.582031 6.222656 4.570312 6.238281 L 4.609375 6.234375 C 4.628906 6.238281 4.652344 6.234375 4.671875 6.226562 L 4.664062 6.222656 L 4.671875 6.199219 L 4.65625 6.191406 L 4.652344 6.179688 L 4.625 6.148438 L 4.613281 6.144531 C 4.621094 6.132812 4.636719 6.117188 4.613281 6.113281 L 4.605469 6.113281 L 4.613281 6.101562 C 4.601562 6.097656 4.589844 6.101562 4.582031 6.109375 C 4.570312 6.125 4.570312 6.140625 4.589844 6.144531 Z M 4.574219 5.867188 L 4.574219 5.882812 L 4.570312 5.878906 L 4.570312 5.902344 C 4.574219 5.917969 4.589844 5.914062 4.59375 5.910156 C 4.597656 5.902344 4.597656 5.898438 4.597656 5.894531 C 4.597656 5.890625 4.597656 5.886719 4.59375 5.882812 C 4.589844 5.882812 4.585938 5.882812 4.582031 5.882812 L 4.582031 5.871094 L 4.578125 5.871094 Z M 2.855469 6.003906 C 2.855469 6.039062 2.863281 6.035156 2.867188 6.0625 C 2.867188 6.082031 2.871094 6.097656 2.878906 6.113281 C 2.882812 6.125 2.886719 6.140625 2.898438 6.144531 C 2.898438 6.113281 2.890625 6.082031 2.878906 6.054688 C 2.871094 6.039062 2.863281 6.019531 2.859375 6.003906 Z M 5.742188 5.648438 C 5.734375 5.652344 5.726562 5.664062 5.730469 5.671875 C 5.726562 5.679688 5.734375 5.6875 5.742188 5.6875 C 5.742188 5.691406 5.746094 5.691406 5.75 5.6875 C 5.761719 5.683594 5.765625 5.648438 5.742188 5.652344 Z M 3.769531 5.644531 C 3.761719 5.65625 3.761719 5.667969 3.773438 5.675781 C 3.773438 5.664062 3.777344 5.652344 3.769531 5.644531 Z M 4.386719 5.65625 L 4.390625 5.660156 C 4.402344 5.648438 4.414062 5.636719 4.421875 5.625 C 4.429688 5.617188 4.4375 5.613281 4.445312 5.605469 C 4.445312 5.601562 4.449219 5.597656 4.449219 5.589844 C 4.449219 5.585938 4.457031 5.578125 4.457031 5.566406 C 4.457031 5.550781 4.449219 5.535156 4.433594 5.535156 L 4.429688 5.527344 C 4.421875 5.527344 4.414062 5.53125 4.410156 5.535156 C 4.402344 5.539062 4.40625 5.546875 4.398438 5.554688 C 4.390625 5.5625 4.378906 5.570312 4.367188 5.578125 C 4.363281 5.578125 4.367188 5.585938 4.355469 5.59375 C 4.347656 5.601562 4.332031 5.597656 4.324219 5.601562 C 4.3125 5.605469 4.300781 5.617188 4.292969 5.625 C 4.28125 5.636719 4.277344 5.652344 4.273438 5.664062 C 4.273438 5.667969 4.265625 5.675781 4.269531 5.679688 C 4.273438 5.683594 4.277344 5.683594 4.28125 5.679688 C 4.285156 5.679688 4.308594 5.667969 4.316406 5.667969 C 4.320312 5.671875 4.324219 5.671875 4.328125 5.675781 C 4.332031 5.675781 4.339844 5.675781 4.34375 5.675781 C 4.347656 5.679688 4.355469 5.683594 4.359375 5.6875 C 4.367188 5.695312 4.378906 5.679688 4.382812 5.671875 C 4.386719 5.667969 4.386719 5.660156 4.386719 5.65625 Z M 4.398438 5.488281 L 4.394531 5.488281 Z M 4.417969 5.503906 C 4.425781 5.519531 4.441406 5.53125 4.453125 5.539062 C 4.457031 5.539062 4.460938 5.535156 4.460938 5.53125 C 4.46875 5.519531 4.464844 5.503906 4.453125 5.492188 C 4.445312 5.492188 4.4375 5.492188 4.433594 5.496094 C 4.433594 5.492188 4.429688 5.488281 4.425781 5.484375 C 4.410156 5.46875 4.390625 5.515625 4.417969 5.503906 Z M 4.332031 5.476562 C 4.34375 5.492188 4.34375 5.492188 4.363281 5.492188 C 4.359375 5.503906 4.34375 5.527344 4.332031 5.515625 C 4.316406 5.507812 4.320312 5.503906 4.316406 5.5 C 4.3125 5.5 4.308594 5.511719 4.304688 5.515625 C 4.296875 5.53125 4.28125 5.53125 4.28125 5.558594 L 4.289062 5.554688 C 4.296875 5.570312 4.3125 5.554688 4.320312 5.546875 C 4.316406 5.550781 4.316406 5.554688 4.3125 5.558594 C 4.3125 5.5625 4.316406 5.566406 4.320312 5.566406 C 4.320312 5.566406 4.324219 5.566406 4.324219 5.566406 C 4.332031 5.566406 4.339844 5.554688 4.34375 5.546875 C 4.347656 5.542969 4.351562 5.542969 4.359375 5.539062 C 4.363281 5.535156 4.371094 5.527344 4.378906 5.523438 C 4.394531 5.507812 4.394531 5.515625 4.402344 5.496094 C 4.402344 5.492188 4.402344 5.488281 4.402344 5.484375 C 4.394531 5.464844 4.363281 5.480469 4.359375 5.480469 L 4.347656 5.476562 C 4.34375 5.476562 4.335938 5.476562 4.328125 5.476562 Z M 4.425781 5.472656 L 4.417969 5.472656 L 4.417969 5.480469 C 4.429688 5.476562 4.4375 5.476562 4.441406 5.460938 C 4.429688 5.460938 4.425781 5.460938 4.425781 5.472656 Z M 3.769531 5.515625 L 3.757812 5.5625 L 3.761719 5.582031 L 3.773438 5.625 C 3.78125 5.609375 3.785156 5.59375 3.789062 5.574219 L 3.789062 5.558594 C 3.792969 5.546875 3.792969 5.539062 3.785156 5.527344 L 3.773438 5.539062 L 3.773438 5.511719 L 3.769531 5.511719 Z M 4.445312 5.457031 C 4.445312 5.445312 4.445312 5.445312 4.457031 5.449219 L 4.457031 5.425781 C 4.449219 5.429688 4.441406 5.433594 4.4375 5.4375 C 4.425781 5.449219 4.425781 5.457031 4.445312 5.460938 Z M 4.382812 5.429688 L 4.390625 5.4375 C 4.398438 5.433594 4.410156 5.4375 4.421875 5.441406 L 4.417969 5.433594 L 4.421875 5.421875 C 4.433594 5.421875 4.433594 5.410156 4.429688 5.402344 C 4.429688 5.402344 4.421875 5.398438 4.421875 5.394531 C 4.398438 5.382812 4.394531 5.402344 4.390625 5.410156 Z M 4.4375 5.421875 C 4.441406 5.421875 4.445312 5.421875 4.449219 5.417969 C 4.457031 5.410156 4.453125 5.394531 4.445312 5.386719 C 4.441406 5.386719 4.441406 5.386719 4.4375 5.390625 C 4.4375 5.390625 4.433594 5.394531 4.4375 5.394531 Z M 3.761719 5.476562 C 3.769531 5.464844 3.773438 5.453125 3.773438 5.4375 C 3.757812 5.445312 3.761719 5.460938 3.761719 5.472656 Z M 3.835938 5.335938 C 3.839844 5.355469 3.835938 5.375 3.828125 5.390625 C 3.816406 5.414062 3.804688 5.433594 3.796875 5.457031 L 3.789062 5.453125 C 3.78125 5.46875 3.78125 5.492188 3.785156 5.511719 C 3.796875 5.5 3.800781 5.484375 3.808594 5.46875 C 3.824219 5.441406 3.835938 5.414062 3.847656 5.382812 C 3.847656 5.367188 3.847656 5.355469 3.847656 5.339844 C 3.847656 5.335938 3.839844 5.335938 3.835938 5.335938 Z M 5.738281 5.394531 C 5.75 5.371094 5.753906 5.347656 5.757812 5.324219 C 5.765625 5.277344 5.789062 5.257812 5.78125 5.199219 C 5.78125 5.1875 5.777344 5.160156 5.761719 5.160156 C 5.738281 5.160156 5.746094 5.1875 5.746094 5.195312 C 5.746094 5.199219 5.746094 5.203125 5.746094 5.210938 C 5.738281 5.234375 5.738281 5.257812 5.742188 5.28125 L 5.738281 5.359375 L 5.742188 5.394531 Z M 5.402344 5.023438 C 5.402344 5.027344 5.40625 5.03125 5.40625 5.035156 L 5.414062 5.042969 C 5.429688 5.046875 5.433594 5.035156 5.429688 5.027344 C 5.425781 5.023438 5.417969 5.019531 5.414062 5.019531 C 5.410156 5.023438 5.40625 5.023438 5.402344 5.027344 Z M 5.714844 4.988281 C 5.71875 5.011719 5.722656 5.035156 5.730469 5.054688 L 5.75 5.089844 L 5.773438 5.15625 C 5.78125 5.144531 5.78125 5.125 5.773438 5.113281 C 5.761719 5.082031 5.75 5.054688 5.738281 5.027344 C 5.734375 5.011719 5.722656 5 5.714844 4.988281 Z M 5.597656 4.953125 L 5.597656 4.976562 L 5.570312 4.964844 C 5.570312 4.984375 5.578125 5 5.589844 5.015625 L 5.613281 5.03125 C 5.628906 5.046875 5.648438 5.0625 5.664062 5.082031 C 5.671875 5.09375 5.679688 5.101562 5.683594 5.113281 C 5.691406 5.117188 5.695312 5.121094 5.699219 5.121094 C 5.707031 5.117188 5.707031 5.105469 5.707031 5.101562 L 5.714844 5.089844 C 5.714844 5.074219 5.710938 5.0625 5.703125 5.050781 L 5.691406 5.019531 C 5.6875 5.003906 5.679688 4.992188 5.671875 4.980469 C 5.65625 4.96875 5.640625 4.960938 5.621094 4.960938 L 5.597656 4.949219 Z M 5.015625 4.980469 C 5.015625 4.992188 5.015625 5.003906 5.003906 5.007812 C 5 5.007812 4.996094 5.003906 4.992188 5.003906 L 4.984375 5.027344 C 4.976562 5.039062 4.976562 5.046875 4.972656 5.058594 C 4.972656 5.070312 4.988281 5.066406 4.996094 5.058594 C 5 5.050781 5.003906 5.042969 5.007812 5.03125 C 5.015625 5.011719 5.03125 5.003906 5.035156 4.984375 Z M 5.664062 4.902344 C 5.667969 4.914062 5.675781 4.925781 5.683594 4.9375 C 5.6875 4.949219 5.6875 4.953125 5.699219 4.949219 C 5.6875 4.933594 5.675781 4.917969 5.664062 4.902344 Z M 4.789062 5.015625 C 4.765625 5.015625 4.78125 5.039062 4.777344 5.050781 C 4.773438 5.0625 4.75 5.078125 4.738281 5.070312 C 4.730469 5.074219 4.722656 5.074219 4.71875 5.070312 C 4.710938 5.070312 4.707031 5.066406 4.699219 5.066406 L 4.667969 5.089844 C 4.660156 5.097656 4.652344 5.101562 4.644531 5.101562 C 4.640625 5.101562 4.632812 5.105469 4.628906 5.109375 C 4.621094 5.113281 4.628906 5.125 4.628906 5.132812 L 4.640625 5.144531 C 4.621094 5.152344 4.621094 5.167969 4.621094 5.1875 C 4.625 5.207031 4.625 5.226562 4.628906 5.246094 C 4.636719 5.257812 4.648438 5.265625 4.660156 5.269531 C 4.664062 5.273438 4.675781 5.273438 4.683594 5.273438 L 4.683594 5.246094 L 4.6875 5.246094 L 4.695312 5.269531 L 4.703125 5.269531 L 4.730469 5.273438 L 4.734375 5.277344 C 4.738281 5.285156 4.734375 5.296875 4.734375 5.300781 C 4.738281 5.316406 4.753906 5.320312 4.765625 5.320312 C 4.765625 5.328125 4.765625 5.335938 4.765625 5.34375 C 4.765625 5.351562 4.761719 5.351562 4.773438 5.375 C 4.773438 5.378906 4.78125 5.390625 4.785156 5.390625 C 4.792969 5.390625 4.804688 5.371094 4.820312 5.363281 C 4.824219 5.375 4.824219 5.378906 4.832031 5.382812 L 4.828125 5.394531 L 4.851562 5.378906 C 4.847656 5.414062 4.832031 5.40625 4.816406 5.425781 C 4.8125 5.4375 4.816406 5.445312 4.8125 5.457031 L 4.828125 5.449219 C 4.847656 5.445312 4.832031 5.46875 4.832031 5.472656 C 4.832031 5.480469 4.835938 5.484375 4.839844 5.484375 L 4.832031 5.492188 L 4.835938 5.507812 L 4.800781 5.507812 C 4.78125 5.515625 4.765625 5.527344 4.75 5.539062 L 4.75 5.542969 L 4.757812 5.542969 L 4.722656 5.5625 C 4.734375 5.5625 4.746094 5.5625 4.757812 5.558594 C 4.769531 5.554688 4.765625 5.558594 4.777344 5.554688 L 4.785156 5.558594 L 4.785156 5.566406 L 4.832031 5.582031 C 4.84375 5.585938 4.851562 5.582031 4.859375 5.582031 C 4.867188 5.582031 4.863281 5.601562 4.878906 5.605469 C 4.894531 5.605469 4.910156 5.601562 4.925781 5.59375 L 4.90625 5.613281 L 4.914062 5.628906 L 4.933594 5.621094 C 4.921875 5.640625 4.921875 5.625 4.890625 5.628906 C 4.898438 5.632812 4.917969 5.640625 4.921875 5.644531 C 4.925781 5.644531 4.9375 5.644531 4.953125 5.644531 C 4.96875 5.648438 4.984375 5.660156 4.988281 5.640625 C 4.988281 5.644531 4.992188 5.644531 4.996094 5.648438 C 5 5.652344 5.007812 5.652344 5.011719 5.652344 C 5.019531 5.652344 5.042969 5.667969 5.039062 5.679688 L 5.035156 5.6875 C 5.03125 5.679688 5.027344 5.671875 5.023438 5.667969 C 5.011719 5.652344 4.996094 5.660156 4.976562 5.65625 L 4.945312 5.648438 L 4.921875 5.648438 C 4.910156 5.648438 4.902344 5.640625 4.890625 5.640625 C 4.886719 5.640625 4.878906 5.644531 4.878906 5.648438 C 4.882812 5.652344 4.882812 5.65625 4.886719 5.660156 C 4.898438 5.664062 4.90625 5.667969 4.917969 5.671875 C 4.929688 5.679688 4.933594 5.679688 4.941406 5.683594 L 4.953125 5.6875 C 4.964844 5.6875 4.964844 5.683594 4.972656 5.6875 C 4.980469 5.6875 4.984375 5.6875 4.992188 5.691406 L 4.957031 5.703125 L 4.929688 5.703125 C 4.933594 5.714844 4.9375 5.71875 4.929688 5.730469 L 4.925781 5.722656 C 4.917969 5.726562 4.917969 5.734375 4.914062 5.742188 L 4.902344 5.75 C 4.902344 5.757812 4.898438 5.761719 4.894531 5.761719 C 4.886719 5.765625 4.878906 5.757812 4.875 5.753906 C 4.867188 5.746094 4.859375 5.746094 4.851562 5.753906 C 4.859375 5.765625 4.863281 5.761719 4.875 5.765625 C 4.886719 5.777344 4.902344 5.789062 4.914062 5.800781 C 4.914062 5.800781 4.910156 5.800781 4.90625 5.804688 C 4.90625 5.816406 4.90625 5.824219 4.914062 5.835938 C 4.917969 5.839844 4.921875 5.839844 4.929688 5.839844 L 4.902344 5.863281 C 4.914062 5.867188 4.917969 5.863281 4.925781 5.871094 L 4.90625 5.871094 L 4.878906 5.851562 L 4.851562 5.839844 C 4.863281 5.839844 4.875 5.839844 4.886719 5.835938 C 4.90625 5.824219 4.898438 5.804688 4.882812 5.792969 C 4.875 5.789062 4.867188 5.785156 4.859375 5.785156 C 4.847656 5.785156 4.839844 5.78125 4.828125 5.78125 L 4.804688 5.785156 L 4.804688 5.777344 C 4.796875 5.777344 4.796875 5.773438 4.789062 5.777344 C 4.78125 5.773438 4.78125 5.769531 4.773438 5.769531 L 4.773438 5.78125 L 4.765625 5.769531 L 4.765625 5.78125 C 4.757812 5.773438 4.757812 5.769531 4.75 5.765625 L 4.757812 5.792969 L 4.753906 5.800781 C 4.742188 5.8125 4.738281 5.828125 4.742188 5.84375 C 4.746094 5.863281 4.742188 5.882812 4.738281 5.902344 C 4.738281 5.914062 4.738281 5.929688 4.738281 5.945312 C 4.734375 5.957031 4.730469 5.972656 4.722656 5.984375 L 4.707031 6.007812 C 4.703125 6.015625 4.699219 6.019531 4.695312 6.027344 C 4.691406 6.035156 4.695312 6.039062 4.699219 6.042969 C 4.703125 6.058594 4.695312 6.054688 4.707031 6.070312 L 4.699219 6.082031 L 4.707031 6.082031 C 4.703125 6.097656 4.714844 6.105469 4.726562 6.101562 C 4.738281 6.097656 4.75 6.085938 4.753906 6.074219 L 4.757812 6.074219 L 4.785156 6.125 C 4.789062 6.128906 4.792969 6.140625 4.800781 6.140625 C 4.808594 6.144531 4.8125 6.132812 4.816406 6.128906 C 4.816406 6.121094 4.824219 6.121094 4.828125 6.117188 C 4.832031 6.113281 4.820312 6.089844 4.824219 6.078125 C 4.824219 6.066406 4.828125 6.0625 4.832031 6.054688 C 4.832031 6.042969 4.816406 6.035156 4.808594 6.027344 C 4.804688 6.019531 4.800781 6.007812 4.800781 6 C 4.796875 5.976562 4.808594 5.96875 4.8125 5.949219 C 4.816406 5.933594 4.804688 5.929688 4.804688 5.921875 C 4.804688 5.910156 4.804688 5.90625 4.8125 5.90625 C 4.828125 5.902344 4.828125 5.921875 4.828125 5.929688 L 4.828125 5.953125 C 4.828125 5.960938 4.824219 5.96875 4.824219 5.980469 C 4.828125 5.984375 4.832031 5.992188 4.835938 6 C 4.839844 6.003906 4.839844 6.011719 4.847656 6.015625 C 4.847656 6.019531 4.855469 6.019531 4.859375 6.019531 C 4.863281 6.019531 4.867188 6.023438 4.871094 6.023438 C 4.878906 6.019531 4.890625 6 4.902344 5.992188 C 4.910156 5.984375 4.914062 5.988281 4.921875 5.988281 C 4.917969 5.996094 4.910156 6.003906 4.90625 6.011719 C 4.898438 6.015625 4.882812 6.019531 4.882812 6.03125 C 4.882812 6.042969 4.898438 6.046875 4.898438 6.0625 C 4.898438 6.078125 4.882812 6.058594 4.878906 6.074219 C 4.871094 6.085938 4.878906 6.09375 4.882812 6.105469 C 4.882812 6.113281 4.882812 6.117188 4.878906 6.125 C 4.871094 6.140625 4.863281 6.128906 4.851562 6.136719 C 4.839844 6.144531 4.832031 6.160156 4.820312 6.164062 C 4.808594 6.167969 4.804688 6.160156 4.796875 6.164062 C 4.792969 6.164062 4.78125 6.175781 4.769531 6.164062 C 4.753906 6.148438 4.769531 6.140625 4.769531 6.128906 L 4.761719 6.105469 C 4.75 6.113281 4.738281 6.125 4.738281 6.140625 C 4.742188 6.160156 4.761719 6.167969 4.753906 6.179688 C 4.742188 6.191406 4.734375 6.183594 4.722656 6.191406 C 4.714844 6.199219 4.699219 6.222656 4.695312 6.226562 C 4.691406 6.226562 4.683594 6.230469 4.679688 6.234375 L 4.652344 6.261719 L 4.628906 6.253906 L 4.628906 6.265625 C 4.621094 6.269531 4.613281 6.269531 4.609375 6.265625 C 4.601562 6.265625 4.589844 6.265625 4.585938 6.273438 C 4.585938 6.28125 4.601562 6.285156 4.605469 6.285156 C 4.617188 6.289062 4.625 6.296875 4.628906 6.308594 C 4.632812 6.320312 4.628906 6.332031 4.625 6.339844 C 4.617188 6.347656 4.605469 6.339844 4.59375 6.339844 C 4.578125 6.339844 4.546875 6.332031 4.527344 6.332031 C 4.507812 6.328125 4.507812 6.347656 4.503906 6.363281 C 4.5 6.375 4.496094 6.375 4.492188 6.382812 C 4.492188 6.386719 4.492188 6.386719 4.492188 6.390625 C 4.492188 6.390625 4.5 6.414062 4.5 6.414062 C 4.503906 6.421875 4.519531 6.421875 4.527344 6.421875 C 4.535156 6.421875 4.539062 6.429688 4.550781 6.4375 C 4.554688 6.441406 4.5625 6.441406 4.570312 6.4375 C 4.589844 6.4375 4.605469 6.445312 4.632812 6.429688 C 4.640625 6.425781 4.644531 6.421875 4.648438 6.417969 C 4.652344 6.410156 4.652344 6.402344 4.660156 6.394531 C 4.664062 6.386719 4.6875 6.382812 4.695312 6.375 C 4.707031 6.367188 4.695312 6.355469 4.710938 6.347656 C 4.730469 6.34375 4.734375 6.355469 4.75 6.347656 C 4.761719 6.34375 4.773438 6.332031 4.785156 6.328125 C 4.800781 6.324219 4.804688 6.34375 4.824219 6.347656 L 4.894531 6.363281 C 4.894531 6.363281 4.898438 6.363281 4.902344 6.367188 C 4.921875 6.382812 4.894531 6.386719 4.882812 6.390625 C 4.878906 6.394531 4.871094 6.394531 4.863281 6.394531 C 4.863281 6.394531 4.863281 6.398438 4.871094 6.402344 C 4.882812 6.40625 4.894531 6.40625 4.90625 6.402344 C 4.910156 6.394531 4.910156 6.390625 4.90625 6.386719 C 4.914062 6.382812 4.921875 6.378906 4.921875 6.371094 C 4.921875 6.363281 4.917969 6.359375 4.921875 6.351562 C 4.929688 6.347656 4.933594 6.347656 4.941406 6.347656 C 4.933594 6.335938 4.925781 6.339844 4.910156 6.339844 C 4.898438 6.339844 4.902344 6.332031 4.894531 6.332031 C 4.890625 6.332031 4.882812 6.335938 4.875 6.332031 C 4.871094 6.328125 4.863281 6.324219 4.855469 6.324219 C 4.847656 6.324219 4.832031 6.316406 4.832031 6.304688 C 4.832031 6.296875 4.835938 6.300781 4.839844 6.300781 C 4.84375 6.296875 4.84375 6.296875 4.847656 6.300781 L 4.847656 6.308594 C 4.871094 6.300781 4.863281 6.308594 4.882812 6.3125 C 4.902344 6.3125 4.921875 6.3125 4.9375 6.320312 C 4.949219 6.320312 4.945312 6.328125 4.957031 6.339844 C 4.964844 6.351562 4.984375 6.34375 5 6.34375 C 5 6.34375 4.996094 6.34375 4.996094 6.347656 C 4.992188 6.351562 4.992188 6.355469 4.996094 6.355469 C 4.996094 6.359375 4.996094 6.359375 5 6.359375 C 5.015625 6.371094 5.039062 6.351562 5.019531 6.339844 L 5.050781 6.324219 C 5.035156 6.320312 5.027344 6.324219 5.007812 6.3125 C 5.015625 6.3125 5.023438 6.308594 5.027344 6.304688 L 5.027344 6.296875 L 5.0625 6.277344 C 5.050781 6.296875 5.0625 6.289062 5.066406 6.308594 C 5.078125 6.308594 5.089844 6.308594 5.101562 6.308594 C 5.113281 6.304688 5.125 6.300781 5.136719 6.292969 C 5.144531 6.289062 5.144531 6.28125 5.152344 6.277344 L 5.175781 6.265625 C 5.183594 6.257812 5.191406 6.25 5.199219 6.238281 C 5.203125 6.234375 5.207031 6.230469 5.214844 6.230469 C 5.21875 6.234375 5.226562 6.257812 5.226562 6.265625 C 5.230469 6.273438 5.230469 6.277344 5.234375 6.285156 C 5.234375 6.3125 5.203125 6.320312 5.183594 6.335938 C 5.167969 6.351562 5.164062 6.359375 5.152344 6.367188 C 5.125 6.378906 5.101562 6.386719 5.074219 6.390625 L 5.03125 6.402344 C 5.019531 6.40625 5.011719 6.414062 5.003906 6.425781 C 5.003906 6.433594 5.003906 6.445312 4.996094 6.449219 C 4.976562 6.457031 4.957031 6.457031 4.933594 6.457031 C 4.917969 6.457031 4.921875 6.453125 4.898438 6.453125 C 4.875 6.457031 4.851562 6.457031 4.828125 6.457031 C 4.832031 6.449219 4.835938 6.441406 4.839844 6.433594 C 4.839844 6.429688 4.839844 6.429688 4.839844 6.425781 C 4.839844 6.421875 4.839844 6.417969 4.835938 6.417969 C 4.832031 6.410156 4.816406 6.410156 4.808594 6.414062 C 4.796875 6.417969 4.785156 6.421875 4.773438 6.421875 L 4.695312 6.429688 C 4.667969 6.4375 4.640625 6.445312 4.617188 6.453125 C 4.601562 6.453125 4.585938 6.453125 4.570312 6.449219 C 4.5625 6.445312 4.550781 6.4375 4.542969 6.441406 C 4.53125 6.445312 4.527344 6.453125 4.515625 6.457031 C 4.5 6.464844 4.484375 6.46875 4.46875 6.476562 C 4.457031 6.484375 4.460938 6.496094 4.445312 6.503906 C 4.429688 6.503906 4.414062 6.507812 4.398438 6.507812 C 4.378906 6.507812 4.359375 6.515625 4.34375 6.523438 L 4.320312 6.53125 C 4.3125 6.535156 4.296875 6.539062 4.292969 6.546875 C 4.289062 6.550781 4.292969 6.5625 4.292969 6.566406 C 4.292969 6.574219 4.292969 6.578125 4.292969 6.585938 C 4.28125 6.601562 4.253906 6.617188 4.257812 6.640625 C 4.261719 6.65625 4.269531 6.65625 4.289062 6.667969 C 4.304688 6.695312 4.328125 6.71875 4.351562 6.738281 C 4.382812 6.765625 4.421875 6.78125 4.460938 6.792969 L 4.523438 6.796875 C 4.554688 6.804688 4.589844 6.804688 4.621094 6.808594 L 4.699219 6.792969 C 4.71875 6.789062 4.738281 6.789062 4.757812 6.792969 C 4.777344 6.796875 4.777344 6.8125 4.808594 6.808594 L 4.855469 6.800781 C 4.863281 6.796875 4.875 6.796875 4.882812 6.800781 C 4.910156 6.816406 4.863281 6.84375 4.882812 6.863281 C 4.90625 6.871094 4.925781 6.878906 4.949219 6.878906 C 4.96875 6.886719 4.984375 6.894531 5 6.90625 C 5.003906 6.910156 5.003906 6.914062 5.011719 6.921875 C 5.015625 6.929688 5.027344 6.929688 5.027344 6.9375 C 5.027344 6.945312 5.015625 6.957031 5.011719 6.960938 C 5 6.972656 4.976562 7.003906 4.988281 7.019531 C 4.996094 7.027344 5.007812 7.03125 5.015625 7.035156 L 5.074219 7.054688 C 5.101562 7.066406 5.105469 7.085938 5.121094 7.097656 C 5.136719 7.101562 5.148438 7.105469 5.164062 7.105469 L 5.226562 7.121094 C 5.25 7.125 5.242188 7.140625 5.257812 7.144531 C 5.300781 7.136719 5.34375 7.121094 5.378906 7.09375 L 5.441406 7.0625 C 5.464844 7.050781 5.484375 7.035156 5.507812 7.019531 C 5.546875 6.988281 5.582031 6.949219 5.601562 6.898438 C 5.613281 6.882812 5.625 6.863281 5.632812 6.84375 C 5.632812 6.832031 5.621094 6.824219 5.625 6.8125 C 5.628906 6.800781 5.660156 6.773438 5.667969 6.757812 C 5.671875 6.746094 5.671875 6.734375 5.660156 6.726562 C 5.652344 6.722656 5.648438 6.726562 5.628906 6.722656 C 5.644531 6.6875 5.664062 6.652344 5.6875 6.621094 C 5.699219 6.605469 5.707031 6.585938 5.710938 6.566406 C 5.710938 6.546875 5.695312 6.542969 5.6875 6.539062 C 5.679688 6.53125 5.683594 6.527344 5.679688 6.523438 C 5.671875 6.523438 5.65625 6.53125 5.648438 6.527344 C 5.640625 6.527344 5.636719 6.527344 5.632812 6.523438 C 5.625 6.519531 5.617188 6.519531 5.609375 6.523438 C 5.609375 6.484375 5.617188 6.445312 5.632812 6.410156 C 5.65625 6.351562 5.667969 6.285156 5.667969 6.21875 L 5.65625 6.171875 C 5.65625 6.164062 5.648438 6.15625 5.640625 6.160156 C 5.632812 6.164062 5.617188 6.199219 5.613281 6.210938 L 5.585938 6.265625 C 5.578125 6.277344 5.570312 6.289062 5.5625 6.300781 C 5.554688 6.308594 5.542969 6.3125 5.53125 6.320312 C 5.53125 6.308594 5.523438 6.3125 5.515625 6.3125 L 5.476562 6.335938 C 5.46875 6.34375 5.457031 6.347656 5.445312 6.351562 C 5.433594 6.351562 5.429688 6.347656 5.417969 6.351562 C 5.410156 6.355469 5.398438 6.355469 5.390625 6.355469 C 5.378906 6.355469 5.371094 6.347656 5.363281 6.347656 C 5.355469 6.347656 5.347656 6.347656 5.339844 6.351562 C 5.3125 6.351562 5.285156 6.347656 5.261719 6.339844 C 5.265625 6.339844 5.269531 6.335938 5.269531 6.332031 C 5.269531 6.328125 5.257812 6.304688 5.277344 6.296875 L 5.320312 6.296875 L 5.34375 6.292969 C 5.351562 6.292969 5.355469 6.300781 5.371094 6.296875 L 5.421875 6.285156 C 5.441406 6.285156 5.449219 6.304688 5.472656 6.289062 C 5.492188 6.269531 5.503906 6.242188 5.511719 6.214844 L 5.53125 6.164062 L 5.539062 6.132812 C 5.546875 6.113281 5.550781 6.089844 5.550781 6.066406 L 5.546875 6.027344 C 5.546875 6.007812 5.539062 5.996094 5.523438 6.011719 C 5.507812 6.03125 5.503906 6.042969 5.484375 6.039062 C 5.476562 6.066406 5.484375 6.101562 5.457031 6.117188 C 5.445312 6.125 5.4375 6.121094 5.425781 6.125 C 5.414062 6.128906 5.410156 6.132812 5.40625 6.128906 C 5.40625 6.128906 5.402344 6.128906 5.398438 6.128906 C 5.398438 6.125 5.394531 6.125 5.394531 6.121094 C 5.394531 6.113281 5.410156 6.105469 5.417969 6.105469 C 5.433594 6.097656 5.449219 6.089844 5.460938 6.074219 C 5.472656 6.058594 5.472656 6.050781 5.480469 6.039062 C 5.488281 6.027344 5.492188 6.03125 5.5 6.019531 C 5.507812 6.011719 5.515625 5.992188 5.519531 5.980469 L 5.546875 5.902344 C 5.558594 5.882812 5.582031 5.878906 5.585938 5.847656 L 5.589844 5.859375 C 5.613281 5.847656 5.613281 5.828125 5.605469 5.804688 C 5.625 5.804688 5.640625 5.804688 5.65625 5.804688 L 5.703125 5.773438 C 5.714844 5.765625 5.734375 5.753906 5.738281 5.738281 C 5.742188 5.726562 5.726562 5.703125 5.722656 5.695312 C 5.71875 5.691406 5.71875 5.6875 5.714844 5.6875 C 5.703125 5.683594 5.6875 5.6875 5.679688 5.671875 C 5.667969 5.652344 5.660156 5.625 5.652344 5.601562 C 5.644531 5.585938 5.636719 5.566406 5.625 5.550781 C 5.621094 5.539062 5.621094 5.53125 5.621094 5.519531 C 5.617188 5.511719 5.613281 5.507812 5.613281 5.5 C 5.609375 5.492188 5.617188 5.488281 5.621094 5.480469 C 5.628906 5.464844 5.628906 5.449219 5.640625 5.441406 C 5.648438 5.429688 5.652344 5.4375 5.65625 5.429688 C 5.667969 5.414062 5.640625 5.398438 5.648438 5.378906 C 5.65625 5.367188 5.667969 5.351562 5.679688 5.351562 C 5.6875 5.351562 5.695312 5.351562 5.703125 5.351562 C 5.710938 5.351562 5.710938 5.332031 5.714844 5.320312 C 5.722656 5.300781 5.734375 5.300781 5.738281 5.269531 C 5.742188 5.257812 5.738281 5.246094 5.734375 5.234375 C 5.726562 5.222656 5.710938 5.234375 5.707031 5.242188 C 5.703125 5.253906 5.703125 5.269531 5.703125 5.28125 C 5.703125 5.296875 5.699219 5.308594 5.695312 5.324219 C 5.683594 5.339844 5.667969 5.328125 5.660156 5.320312 C 5.65625 5.3125 5.660156 5.3125 5.660156 5.308594 C 5.660156 5.292969 5.660156 5.277344 5.660156 5.265625 C 5.664062 5.25 5.667969 5.238281 5.667969 5.226562 C 5.660156 5.214844 5.652344 5.203125 5.644531 5.191406 C 5.632812 5.183594 5.617188 5.160156 5.601562 5.171875 C 5.585938 5.179688 5.589844 5.207031 5.585938 5.21875 C 5.585938 5.226562 5.582031 5.238281 5.578125 5.238281 C 5.570312 5.238281 5.566406 5.238281 5.5625 5.234375 C 5.550781 5.222656 5.542969 5.210938 5.542969 5.195312 C 5.546875 5.195312 5.566406 5.199219 5.566406 5.195312 C 5.566406 5.1875 5.554688 5.171875 5.546875 5.171875 C 5.539062 5.171875 5.539062 5.179688 5.527344 5.171875 C 5.511719 5.15625 5.5 5.136719 5.488281 5.117188 C 5.472656 5.101562 5.457031 5.085938 5.4375 5.078125 C 5.429688 5.074219 5.390625 5.0625 5.382812 5.070312 C 5.375 5.074219 5.378906 5.078125 5.378906 5.082031 C 5.375 5.078125 5.371094 5.078125 5.371094 5.078125 C 5.355469 5.074219 5.347656 5.09375 5.347656 5.105469 C 5.347656 5.117188 5.347656 5.117188 5.34375 5.121094 C 5.339844 5.121094 5.332031 5.121094 5.328125 5.113281 C 5.320312 5.109375 5.3125 5.101562 5.300781 5.101562 C 5.304688 5.109375 5.308594 5.117188 5.3125 5.125 C 5.324219 5.140625 5.332031 5.140625 5.332031 5.160156 C 5.3125 5.15625 5.296875 5.144531 5.285156 5.132812 L 5.300781 5.125 L 5.300781 5.113281 C 5.292969 5.109375 5.269531 5.09375 5.269531 5.085938 C 5.269531 5.078125 5.277344 5.078125 5.277344 5.070312 C 5.277344 5.066406 5.269531 5.0625 5.277344 5.050781 C 5.28125 5.042969 5.292969 5.039062 5.292969 5.03125 C 5.292969 5.023438 5.289062 5.023438 5.285156 5.019531 C 5.277344 5.019531 5.257812 5.003906 5.25 5.011719 C 5.238281 5.023438 5.25 5.035156 5.242188 5.054688 C 5.238281 5.054688 5.226562 5.046875 5.21875 5.046875 C 5.210938 5.046875 5.199219 5.050781 5.1875 5.046875 C 5.179688 5.042969 5.167969 5.027344 5.15625 5.023438 C 5.132812 5.015625 5.109375 5.015625 5.085938 5.023438 C 5.074219 5.023438 5.0625 5.027344 5.050781 5.03125 C 5.042969 5.035156 5.039062 5.042969 5.035156 5.050781 C 5.027344 5.0625 5.007812 5.066406 5.007812 5.085938 C 5.011719 5.101562 5.027344 5.101562 5.03125 5.105469 L 5.042969 5.132812 C 5.03125 5.132812 5.019531 5.132812 5.007812 5.132812 L 4.960938 5.140625 C 4.9375 5.140625 4.929688 5.128906 4.914062 5.121094 C 4.90625 5.121094 4.898438 5.117188 4.890625 5.113281 C 4.886719 5.113281 4.882812 5.101562 4.882812 5.101562 C 4.871094 5.09375 4.859375 5.09375 4.847656 5.09375 C 4.851562 5.097656 4.847656 5.101562 4.847656 5.105469 C 4.839844 5.113281 4.828125 5.121094 4.816406 5.121094 C 4.8125 5.125 4.804688 5.125 4.800781 5.121094 L 4.800781 5.113281 C 4.800781 5.101562 4.796875 5.101562 4.789062 5.105469 C 4.777344 5.109375 4.765625 5.117188 4.757812 5.125 C 4.761719 5.117188 4.765625 5.109375 4.769531 5.105469 C 4.78125 5.097656 4.789062 5.09375 4.800781 5.089844 L 4.832031 5.066406 C 4.839844 5.0625 4.847656 5.058594 4.855469 5.050781 C 4.871094 5.027344 4.878906 4.996094 4.871094 4.96875 C 4.855469 4.976562 4.839844 4.984375 4.828125 4.996094 C 4.820312 5 4.816406 5.003906 4.808594 5.003906 C 4.804688 5.007812 4.800781 5.015625 4.800781 5.023438 Z M 5.011719 4.9375 L 5.03125 4.953125 L 5.046875 4.980469 C 5.058594 4.976562 5.0625 4.972656 5.070312 4.96875 C 5.078125 4.964844 5.097656 4.972656 5.09375 4.957031 L 5.085938 4.949219 L 5.085938 4.957031 C 5.078125 4.949219 5.070312 4.945312 5.0625 4.9375 C 5.042969 4.9375 5.027344 4.9375 5.011719 4.9375 Z M 5.082031 4.949219 C 5.109375 4.945312 5.105469 4.9375 5.121094 4.933594 C 5.132812 4.933594 5.140625 4.933594 5.152344 4.933594 L 5.152344 4.945312 C 5.171875 4.949219 5.167969 4.941406 5.183594 4.945312 C 5.195312 4.945312 5.203125 4.964844 5.226562 4.972656 C 5.234375 4.976562 5.238281 4.976562 5.246094 4.972656 C 5.25 4.980469 5.253906 4.980469 5.261719 4.980469 C 5.261719 4.96875 5.269531 4.964844 5.265625 4.957031 C 5.261719 4.953125 5.242188 4.945312 5.238281 4.964844 C 5.230469 4.957031 5.234375 4.953125 5.230469 4.945312 C 5.222656 4.9375 5.210938 4.933594 5.199219 4.9375 C 5.195312 4.917969 5.199219 4.925781 5.167969 4.910156 C 5.15625 4.902344 5.144531 4.898438 5.128906 4.894531 C 5.117188 4.894531 5.113281 4.902344 5.105469 4.90625 C 5.09375 4.914062 5.089844 4.914062 5.085938 4.917969 C 5.082031 4.925781 5.078125 4.933594 5.082031 4.945312 Z M 5.523438 4.855469 L 5.550781 4.882812 C 5.558594 4.898438 5.570312 4.910156 5.582031 4.925781 C 5.589844 4.933594 5.605469 4.9375 5.617188 4.933594 C 5.625 4.929688 5.648438 4.90625 5.628906 4.894531 C 5.621094 4.890625 5.613281 4.894531 5.605469 4.894531 C 5.605469 4.882812 5.605469 4.867188 5.601562 4.855469 C 5.601562 4.851562 5.601562 4.84375 5.59375 4.847656 C 5.582031 4.847656 5.59375 4.882812 5.578125 4.871094 L 5.570312 4.867188 L 5.566406 4.867188 C 5.558594 4.878906 5.566406 4.878906 5.574219 4.886719 C 5.582031 4.894531 5.589844 4.90625 5.589844 4.917969 C 5.570312 4.902344 5.566406 4.890625 5.550781 4.871094 C 5.546875 4.859375 5.535156 4.855469 5.523438 4.855469 Z M 5.613281 4.832031 C 5.625 4.855469 5.636719 4.875 5.65625 4.886719 C 5.648438 4.867188 5.632812 4.835938 5.613281 4.832031 Z M 4.066406 4.992188 L 4.085938 4.992188 L 4.140625 5.007812 C 4.15625 5.007812 4.171875 5.015625 4.179688 5.023438 C 4.15625 5.023438 4.160156 5.023438 4.136719 5.019531 C 4.125 5.019531 4.109375 5.019531 4.097656 5.019531 C 4.089844 5.015625 4.085938 5.015625 4.078125 5.011719 L 4.019531 5.019531 C 4.007812 5.019531 4.003906 5.007812 3.996094 5.007812 C 3.988281 5 3.976562 5 3.96875 5.007812 C 3.953125 5.011719 3.941406 5.023438 3.929688 5.03125 C 3.902344 5.046875 3.875 5.070312 3.855469 5.09375 C 3.84375 5.113281 3.84375 5.121094 3.832031 5.144531 C 3.820312 5.164062 3.789062 5.175781 3.769531 5.203125 C 3.761719 5.214844 3.753906 5.230469 3.75 5.242188 C 3.738281 5.25 3.726562 5.257812 3.714844 5.265625 C 3.710938 5.269531 3.703125 5.269531 3.699219 5.273438 C 3.691406 5.277344 3.6875 5.28125 3.6875 5.289062 L 3.664062 5.3125 C 3.65625 5.328125 3.644531 5.347656 3.636719 5.367188 C 3.636719 5.378906 3.660156 5.386719 3.648438 5.40625 L 3.644531 5.414062 C 3.628906 5.425781 3.625 5.410156 3.613281 5.410156 C 3.605469 5.40625 3.582031 5.421875 3.570312 5.414062 C 3.558594 5.402344 3.566406 5.394531 3.566406 5.386719 C 3.566406 5.375 3.558594 5.371094 3.554688 5.363281 C 3.554688 5.34375 3.546875 5.328125 3.539062 5.3125 C 3.53125 5.300781 3.523438 5.296875 3.515625 5.3125 L 3.511719 5.328125 C 3.503906 5.308594 3.507812 5.292969 3.492188 5.289062 C 3.476562 5.285156 3.46875 5.3125 3.457031 5.324219 C 3.441406 5.34375 3.421875 5.363281 3.402344 5.375 L 3.375 5.40625 L 3.355469 5.417969 C 3.347656 5.429688 3.339844 5.445312 3.335938 5.460938 L 3.316406 5.546875 C 3.308594 5.5625 3.304688 5.59375 3.285156 5.597656 C 3.273438 5.601562 3.261719 5.601562 3.253906 5.597656 C 3.246094 5.59375 3.242188 5.589844 3.234375 5.585938 C 3.222656 5.589844 3.207031 5.585938 3.195312 5.582031 C 3.1875 5.574219 3.175781 5.558594 3.167969 5.554688 C 3.15625 5.550781 3.148438 5.550781 3.140625 5.554688 C 3.128906 5.554688 3.117188 5.554688 3.105469 5.554688 C 3.085938 5.546875 3.070312 5.515625 3.0625 5.496094 C 3.058594 5.488281 3.054688 5.476562 3.046875 5.472656 C 3.039062 5.464844 3.027344 5.476562 3.015625 5.476562 C 3.003906 5.464844 2.988281 5.457031 2.976562 5.449219 C 2.976562 5.449219 2.96875 5.441406 2.964844 5.441406 C 2.960938 5.445312 2.957031 5.453125 2.957031 5.457031 C 2.957031 5.46875 2.960938 5.480469 2.972656 5.488281 C 2.972656 5.488281 2.980469 5.5 2.976562 5.503906 C 2.96875 5.511719 2.949219 5.480469 2.941406 5.496094 C 2.941406 5.5 2.941406 5.5 2.9375 5.503906 L 2.933594 5.503906 L 2.921875 5.46875 L 2.921875 5.453125 L 2.910156 5.417969 L 2.890625 5.4375 L 2.886719 5.417969 L 2.882812 5.402344 C 2.878906 5.390625 2.871094 5.394531 2.859375 5.398438 C 2.851562 5.402344 2.835938 5.429688 2.824219 5.4375 C 2.816406 5.441406 2.804688 5.4375 2.796875 5.441406 C 2.785156 5.449219 2.777344 5.457031 2.777344 5.46875 L 2.757812 5.554688 C 2.742188 5.605469 2.738281 5.660156 2.742188 5.714844 L 2.75 5.753906 L 2.757812 5.808594 L 2.765625 5.835938 L 2.769531 5.835938 C 2.765625 5.800781 2.769531 5.765625 2.777344 5.730469 C 2.785156 5.703125 2.796875 5.695312 2.796875 5.660156 L 2.800781 5.6875 C 2.8125 5.675781 2.8125 5.667969 2.828125 5.660156 C 2.832031 5.667969 2.835938 5.675781 2.839844 5.6875 C 2.839844 5.695312 2.84375 5.707031 2.847656 5.714844 C 2.851562 5.722656 2.859375 5.730469 2.863281 5.734375 C 2.867188 5.742188 2.871094 5.75 2.875 5.761719 C 2.878906 5.773438 2.886719 5.796875 2.902344 5.804688 C 2.90625 5.785156 2.910156 5.769531 2.90625 5.753906 C 2.90625 5.75 2.90625 5.734375 2.914062 5.730469 C 2.921875 5.726562 2.929688 5.75 2.929688 5.753906 C 2.933594 5.773438 2.941406 5.789062 2.949219 5.804688 C 2.960938 5.824219 2.96875 5.824219 2.980469 5.851562 L 2.984375 5.839844 C 2.992188 5.855469 2.984375 5.867188 3 5.875 C 2.996094 5.859375 2.996094 5.839844 3 5.824219 C 3 5.820312 3.007812 5.820312 3.011719 5.816406 L 3.019531 5.890625 C 3.019531 5.898438 3.023438 5.910156 3.03125 5.914062 C 3.042969 5.925781 3.054688 5.914062 3.0625 5.929688 L 3.070312 5.964844 C 3.074219 5.996094 3.085938 6.023438 3.097656 6.050781 C 3.105469 6.074219 3.117188 6.09375 3.128906 6.109375 C 3.136719 6.117188 3.140625 6.125 3.152344 6.121094 C 3.160156 6.117188 3.15625 6.105469 3.15625 6.101562 C 3.160156 6.09375 3.160156 6.089844 3.164062 6.082031 C 3.160156 6.070312 3.164062 6.058594 3.167969 6.050781 C 3.164062 6.0625 3.167969 6.0625 3.167969 6.078125 C 3.171875 6.09375 3.175781 6.113281 3.179688 6.128906 C 3.1875 6.15625 3.199219 6.179688 3.210938 6.199219 C 3.226562 6.214844 3.242188 6.230469 3.261719 6.242188 C 3.277344 6.261719 3.296875 6.277344 3.320312 6.292969 L 3.347656 6.3125 L 3.367188 6.328125 C 3.390625 6.339844 3.390625 6.320312 3.402344 6.320312 C 3.417969 6.328125 3.429688 6.335938 3.441406 6.347656 C 3.457031 6.363281 3.472656 6.382812 3.488281 6.402344 L 3.542969 6.460938 C 3.558594 6.476562 3.574219 6.503906 3.59375 6.503906 L 3.613281 6.503906 C 3.636719 6.511719 3.660156 6.515625 3.683594 6.511719 C 3.6875 6.511719 3.695312 6.507812 3.699219 6.5 C 3.707031 6.496094 3.707031 6.484375 3.71875 6.484375 C 3.730469 6.488281 3.742188 6.492188 3.753906 6.5 C 3.777344 6.511719 3.804688 6.523438 3.832031 6.53125 C 3.847656 6.539062 3.863281 6.527344 3.867188 6.511719 C 3.867188 6.507812 3.867188 6.503906 3.867188 6.5 C 3.863281 6.484375 3.835938 6.46875 3.824219 6.441406 C 3.8125 6.417969 3.800781 6.394531 3.785156 6.375 L 3.753906 6.332031 L 3.722656 6.285156 C 3.71875 6.277344 3.714844 6.269531 3.714844 6.257812 L 3.691406 6.199219 C 3.679688 6.179688 3.660156 6.179688 3.648438 6.148438 C 3.65625 6.164062 3.671875 6.175781 3.6875 6.183594 C 3.679688 6.164062 3.671875 6.144531 3.660156 6.125 L 3.636719 6.101562 C 3.648438 6.113281 3.660156 6.121094 3.675781 6.125 L 3.679688 6.105469 C 3.683594 6.089844 3.691406 6.085938 3.691406 6.0625 C 3.691406 6.027344 3.65625 5.976562 3.652344 5.929688 C 3.652344 5.910156 3.652344 5.890625 3.65625 5.871094 L 3.65625 5.835938 C 3.65625 5.832031 3.660156 5.824219 3.660156 5.816406 L 3.660156 5.792969 C 3.664062 5.78125 3.664062 5.773438 3.664062 5.761719 L 3.652344 5.726562 L 3.652344 5.703125 L 3.648438 5.671875 C 3.648438 5.644531 3.660156 5.632812 3.664062 5.613281 C 3.660156 5.601562 3.65625 5.589844 3.648438 5.578125 C 3.640625 5.574219 3.628906 5.578125 3.632812 5.566406 C 3.636719 5.554688 3.65625 5.574219 3.660156 5.582031 C 3.664062 5.566406 3.664062 5.550781 3.660156 5.539062 L 3.652344 5.480469 C 3.648438 5.46875 3.636719 5.460938 3.636719 5.453125 C 3.636719 5.445312 3.644531 5.445312 3.652344 5.4375 C 3.660156 5.425781 3.664062 5.417969 3.664062 5.40625 L 3.664062 5.367188 C 3.667969 5.347656 3.679688 5.332031 3.699219 5.320312 C 3.71875 5.316406 3.738281 5.335938 3.746094 5.335938 C 3.757812 5.335938 3.761719 5.324219 3.765625 5.316406 L 3.789062 5.246094 L 3.792969 5.246094 C 3.804688 5.265625 3.816406 5.269531 3.832031 5.28125 L 3.84375 5.296875 C 3.84375 5.296875 3.847656 5.296875 3.851562 5.292969 C 3.863281 5.277344 3.867188 5.257812 3.863281 5.238281 C 3.859375 5.230469 3.851562 5.222656 3.847656 5.210938 C 3.847656 5.203125 3.851562 5.195312 3.855469 5.191406 C 3.855469 5.175781 3.863281 5.164062 3.871094 5.152344 C 3.894531 5.132812 3.925781 5.128906 3.949219 5.144531 C 3.960938 5.15625 3.960938 5.160156 3.964844 5.167969 C 3.972656 5.171875 3.984375 5.175781 3.984375 5.1875 C 3.988281 5.195312 3.988281 5.203125 3.984375 5.207031 C 3.988281 5.21875 3.988281 5.230469 3.984375 5.238281 C 3.976562 5.25 3.96875 5.265625 3.960938 5.277344 C 3.957031 5.296875 3.96875 5.296875 3.960938 5.3125 C 3.957031 5.328125 3.945312 5.339844 3.941406 5.355469 C 3.9375 5.371094 3.9375 5.371094 3.929688 5.378906 C 3.917969 5.382812 3.910156 5.386719 3.898438 5.386719 C 3.886719 5.390625 3.878906 5.394531 3.867188 5.402344 C 3.867188 5.40625 3.867188 5.410156 3.871094 5.414062 C 3.875 5.425781 3.882812 5.425781 3.894531 5.421875 C 3.90625 5.417969 3.933594 5.40625 3.949219 5.417969 C 3.964844 5.433594 3.96875 5.472656 3.980469 5.488281 C 3.988281 5.496094 4 5.5 4.011719 5.5 C 4.019531 5.503906 4.027344 5.507812 4.035156 5.511719 C 4.050781 5.527344 4.046875 5.539062 4.054688 5.546875 C 4.0625 5.558594 4.066406 5.550781 4.074219 5.558594 L 4.105469 5.609375 L 4.125 5.589844 C 4.132812 5.597656 4.140625 5.597656 4.140625 5.585938 C 4.140625 5.578125 4.136719 5.566406 4.132812 5.558594 C 4.148438 5.570312 4.152344 5.585938 4.148438 5.605469 C 4.148438 5.609375 4.148438 5.613281 4.148438 5.617188 C 4.152344 5.628906 4.160156 5.640625 4.167969 5.648438 C 4.175781 5.652344 4.183594 5.652344 4.191406 5.648438 C 4.199219 5.632812 4.203125 5.617188 4.214844 5.601562 C 4.222656 5.589844 4.242188 5.585938 4.257812 5.566406 C 4.253906 5.566406 4.242188 5.558594 4.242188 5.554688 C 4.242188 5.546875 4.257812 5.542969 4.265625 5.539062 C 4.277344 5.527344 4.285156 5.511719 4.289062 5.496094 L 4.261719 5.496094 L 4.25 5.492188 L 4.226562 5.492188 L 4.207031 5.476562 L 4.179688 5.476562 C 4.183594 5.46875 4.1875 5.460938 4.199219 5.460938 C 4.210938 5.457031 4.214844 5.460938 4.21875 5.460938 C 4.222656 5.460938 4.222656 5.445312 4.230469 5.441406 C 4.242188 5.429688 4.257812 5.425781 4.261719 5.40625 C 4.269531 5.410156 4.28125 5.410156 4.289062 5.40625 C 4.308594 5.414062 4.3125 5.445312 4.320312 5.464844 C 4.300781 5.457031 4.304688 5.476562 4.300781 5.492188 C 4.3125 5.484375 4.320312 5.472656 4.328125 5.472656 L 4.355469 5.472656 C 4.359375 5.46875 4.363281 5.46875 4.371094 5.464844 C 4.382812 5.460938 4.394531 5.472656 4.402344 5.484375 C 4.410156 5.480469 4.410156 5.476562 4.402344 5.464844 L 4.410156 5.464844 L 4.40625 5.449219 C 4.394531 5.449219 4.390625 5.449219 4.390625 5.460938 C 4.382812 5.457031 4.375 5.453125 4.371094 5.453125 L 4.378906 5.445312 L 4.378906 5.441406 C 4.359375 5.433594 4.378906 5.425781 4.382812 5.414062 C 4.382812 5.410156 4.382812 5.40625 4.378906 5.402344 L 4.40625 5.390625 C 4.417969 5.375 4.425781 5.386719 4.429688 5.371094 C 4.453125 5.375 4.445312 5.347656 4.460938 5.339844 C 4.464844 5.339844 4.472656 5.339844 4.476562 5.339844 L 4.492188 5.332031 C 4.5 5.332031 4.507812 5.332031 4.515625 5.328125 C 4.523438 5.324219 4.527344 5.316406 4.535156 5.304688 C 4.539062 5.300781 4.542969 5.296875 4.546875 5.289062 C 4.546875 5.28125 4.546875 5.273438 4.546875 5.265625 C 4.550781 5.269531 4.5625 5.265625 4.566406 5.257812 C 4.570312 5.253906 4.570312 5.25 4.566406 5.246094 C 4.5625 5.246094 4.5625 5.242188 4.558594 5.242188 L 4.550781 5.242188 L 4.578125 5.214844 L 4.585938 5.191406 L 4.574219 5.191406 L 4.578125 5.175781 L 4.554688 5.175781 L 4.574219 5.152344 C 4.585938 5.144531 4.59375 5.148438 4.597656 5.132812 C 4.578125 5.140625 4.554688 5.15625 4.539062 5.171875 L 4.519531 5.203125 L 4.519531 5.191406 C 4.5 5.199219 4.5 5.210938 4.492188 5.214844 L 4.488281 5.21875 C 4.496094 5.21875 4.453125 5.21875 4.460938 5.21875 C 4.449219 5.214844 4.4375 5.210938 4.429688 5.199219 C 4.421875 5.195312 4.417969 5.1875 4.40625 5.195312 L 4.371094 5.160156 C 4.375 5.15625 4.375 5.152344 4.371094 5.148438 C 4.367188 5.144531 4.355469 5.144531 4.347656 5.136719 C 4.332031 5.125 4.332031 5.109375 4.328125 5.089844 C 4.328125 5.082031 4.324219 5.070312 4.320312 5.058594 C 4.316406 5.054688 4.316406 5.046875 4.3125 5.042969 C 4.304688 5.035156 4.296875 5.03125 4.289062 5.023438 C 4.28125 5.015625 4.269531 5.007812 4.257812 5.003906 C 4.242188 5.003906 4.230469 5.011719 4.214844 5.007812 C 4.203125 5.007812 4.191406 4.992188 4.179688 4.988281 C 4.167969 4.984375 4.160156 4.984375 4.152344 4.988281 C 4.152344 4.980469 4.152344 4.972656 4.144531 4.972656 C 4.136719 4.972656 4.125 4.972656 4.117188 4.976562 C 4.109375 4.976562 4.105469 4.96875 4.101562 4.96875 C 4.085938 4.964844 4.074219 4.964844 4.058594 4.972656 C 4.054688 4.972656 4.058594 4.980469 4.058594 4.984375 Z M 5.558594 4.765625 C 5.578125 4.792969 5.601562 4.8125 5.632812 4.824219 C 5.625 4.8125 5.617188 4.808594 5.609375 4.800781 C 5.59375 4.789062 5.578125 4.777344 5.5625 4.769531 Z M 5.390625 4.679688 L 5.386719 4.671875 C 5.394531 4.671875 5.402344 4.679688 5.410156 4.6875 C 5.410156 4.691406 5.414062 4.695312 5.414062 4.703125 C 5.414062 4.714844 5.4375 4.742188 5.449219 4.742188 C 5.453125 4.742188 5.453125 4.742188 5.457031 4.742188 L 5.445312 4.703125 C 5.441406 4.695312 5.4375 4.699219 5.429688 4.691406 L 5.386719 4.640625 C 5.386719 4.636719 5.375 4.625 5.375 4.617188 C 5.375 4.609375 5.386719 4.609375 5.394531 4.609375 L 5.351562 4.574219 C 5.347656 4.570312 5.339844 4.5625 5.332031 4.5625 C 5.324219 4.566406 5.320312 4.578125 5.316406 4.585938 C 5.3125 4.59375 5.308594 4.597656 5.308594 4.605469 C 5.3125 4.613281 5.320312 4.625 5.328125 4.628906 L 5.363281 4.660156 C 5.371094 4.671875 5.378906 4.675781 5.390625 4.683594 Z M 5.933594 4.675781 C 5.925781 4.644531 5.910156 4.613281 5.886719 4.589844 L 5.847656 4.558594 C 5.832031 4.539062 5.816406 4.515625 5.796875 4.496094 C 5.773438 4.476562 5.757812 4.472656 5.738281 4.457031 L 5.703125 4.425781 L 5.640625 4.375 C 5.621094 4.359375 5.605469 4.34375 5.589844 4.328125 C 5.578125 4.308594 5.582031 4.300781 5.574219 4.292969 C 5.566406 4.285156 5.554688 4.28125 5.546875 4.277344 L 5.546875 4.269531 L 5.53125 4.261719 C 5.542969 4.242188 5.53125 4.25 5.515625 4.234375 C 5.511719 4.226562 5.511719 4.21875 5.503906 4.207031 C 5.492188 4.191406 5.476562 4.179688 5.460938 4.171875 L 5.382812 4.128906 C 5.359375 4.113281 5.328125 4.101562 5.296875 4.097656 C 5.277344 4.101562 5.261719 4.105469 5.242188 4.113281 C 5.222656 4.117188 5.183594 4.117188 5.171875 4.132812 C 5.160156 4.152344 5.191406 4.179688 5.203125 4.191406 L 5.234375 4.226562 C 5.242188 4.234375 5.25 4.242188 5.257812 4.253906 C 5.269531 4.261719 5.28125 4.269531 5.292969 4.28125 C 5.300781 4.292969 5.289062 4.296875 5.296875 4.308594 C 5.308594 4.324219 5.320312 4.335938 5.328125 4.351562 C 5.339844 4.363281 5.332031 4.371094 5.339844 4.378906 C 5.347656 4.382812 5.355469 4.378906 5.359375 4.378906 C 5.367188 4.378906 5.402344 4.359375 5.410156 4.363281 C 5.425781 4.378906 5.441406 4.394531 5.457031 4.410156 C 5.460938 4.414062 5.472656 4.421875 5.46875 4.429688 C 5.46875 4.4375 5.4375 4.429688 5.445312 4.441406 C 5.449219 4.445312 5.46875 4.457031 5.476562 4.464844 L 5.5 4.488281 L 5.53125 4.511719 C 5.539062 4.515625 5.546875 4.527344 5.550781 4.53125 C 5.558594 4.535156 5.570312 4.519531 5.582031 4.527344 C 5.605469 4.539062 5.621094 4.570312 5.644531 4.589844 C 5.652344 4.59375 5.664062 4.597656 5.675781 4.601562 C 5.6875 4.609375 5.695312 4.613281 5.707031 4.621094 C 5.722656 4.632812 5.726562 4.621094 5.746094 4.644531 C 5.773438 4.664062 5.796875 4.691406 5.820312 4.714844 C 5.835938 4.730469 5.847656 4.742188 5.867188 4.75 L 5.871094 4.75 L 5.894531 4.738281 C 5.894531 4.730469 5.894531 4.722656 5.894531 4.714844 C 5.894531 4.710938 5.902344 4.707031 5.902344 4.699219 C 5.902344 4.691406 5.902344 4.679688 5.910156 4.675781 C 5.914062 4.675781 5.925781 4.683594 5.929688 4.683594 Z M 5.421875 4.121094 C 5.421875 4.113281 5.421875 4.109375 5.417969 4.101562 C 5.40625 4.085938 5.390625 4.070312 5.371094 4.066406 C 5.363281 4.066406 5.34375 4.058594 5.339844 4.066406 C 5.335938 4.070312 5.355469 4.089844 5.363281 4.09375 C 5.371094 4.097656 5.378906 4.101562 5.386719 4.109375 C 5.398438 4.113281 5.410156 4.117188 5.421875 4.121094 Z M 4.605469 3.941406 C 4.628906 3.941406 4.648438 3.945312 4.671875 3.953125 C 4.691406 3.964844 4.714844 3.972656 4.738281 3.976562 L 4.707031 3.941406 L 4.722656 3.929688 C 4.714844 3.925781 4.710938 3.921875 4.699219 3.917969 C 4.695312 3.914062 4.695312 3.910156 4.691406 3.90625 L 4.671875 3.90625 C 4.660156 3.910156 4.648438 3.914062 4.636719 3.917969 C 4.625 3.921875 4.605469 3.925781 4.605469 3.941406 Z M 4.734375 3.882812 C 4.730469 3.894531 4.71875 3.898438 4.710938 3.90625 C 4.710938 3.90625 4.710938 3.910156 4.714844 3.910156 C 4.730469 3.914062 4.746094 3.917969 4.761719 3.921875 C 4.785156 3.921875 4.785156 3.910156 4.8125 3.90625 L 4.84375 3.898438 C 4.875 3.898438 4.90625 3.894531 4.9375 3.882812 C 4.929688 3.867188 4.921875 3.867188 4.90625 3.863281 C 4.882812 3.855469 4.859375 3.855469 4.832031 3.863281 C 4.8125 3.871094 4.8125 3.878906 4.78125 3.882812 Z M 4.734375 3.882812 "/>
<path style=" stroke:none;fill-rule:nonzero;fill:rgb(100%,100%,100%);fill-opacity:1;" d="M 11.8125 4.503906 C 11.648438 4.667969 11.425781 4.757812 11.195312 4.753906 C 10.949219 4.757812 10.714844 4.65625 10.539062 4.480469 C 10.367188 4.300781 10.269531 4.058594 10.269531 3.808594 C 10.269531 3.433594 10.484375 3.097656 10.820312 2.945312 C 11.15625 2.792969 11.546875 2.855469 11.816406 3.109375 L 11.742188 3.179688 C 11.5 2.960938 11.152344 2.90625 10.855469 3.042969 C 10.5625 3.175781 10.371094 3.476562 10.371094 3.808594 C 10.371094 4.132812 10.550781 4.425781 10.835938 4.566406 C 11.121094 4.707031 11.460938 4.667969 11.707031 4.464844 L 11.707031 3.902344 L 11.8125 3.902344 Z M 11.8125 4.503906 "/>
<path style=" stroke:none;fill-rule:nonzero;fill:rgb(100%,100%,100%);fill-opacity:1;" d="M 12.578125 3.710938 C 12.464844 3.675781 12.359375 3.613281 12.273438 3.527344 C 12.148438 3.371094 12.15625 3.144531 12.296875 3 C 12.441406 2.855469 12.664062 2.847656 12.816406 2.976562 C 12.855469 3.015625 12.886719 3.0625 12.902344 3.113281 L 12.8125 3.152344 C 12.796875 3.113281 12.773438 3.078125 12.742188 3.046875 C 12.632812 2.9375 12.457031 2.9375 12.347656 3.046875 C 12.292969 3.101562 12.261719 3.175781 12.261719 3.253906 C 12.261719 3.328125 12.292969 3.402344 12.347656 3.457031 C 12.410156 3.515625 12.480469 3.5625 12.558594 3.597656 C 12.695312 3.640625 12.820312 3.71875 12.925781 3.820312 C 13.027344 3.921875 13.082031 4.0625 13.082031 4.207031 C 13.082031 4.492188 12.867188 4.730469 12.589844 4.753906 C 12.308594 4.777344 12.0625 4.578125 12.015625 4.296875 L 12.113281 4.261719 C 12.132812 4.453125 12.277344 4.609375 12.464844 4.648438 C 12.652344 4.683594 12.84375 4.589844 12.929688 4.417969 C 13.019531 4.242188 12.988281 4.03125 12.855469 3.894531 C 12.773438 3.8125 12.683594 3.75 12.578125 3.710938 Z M 12.578125 3.710938 "/>
<path style=" stroke:none;fill-rule:nonzero;fill:rgb(100%,100%,100%);fill-opacity:1;" d="M 13.308594 4.734375 L 13.308594 2.882812 L 13.410156 2.882812 L 13.410156 4.628906 L 14.109375 4.628906 L 14.109375 4.734375 Z M 13.308594 4.734375 "/>
<path style=" stroke:none;fill-rule:nonzero;fill:rgb(100%,100%,100%);fill-opacity:1;" d="M 14.5 2.882812 L 15.179688 4.085938 L 15.859375 2.882812 L 15.976562 2.882812 L 15.96875 2.890625 L 15.96875 4.734375 L 15.867188 4.734375 L 15.867188 3.070312 L 15.179688 4.289062 L 14.488281 3.070312 L 14.488281 4.734375 L 14.386719 4.734375 L 14.386719 2.890625 L 14.382812 2.882812 Z M 14.5 2.882812 "/>
<path style=" stroke:none;fill-rule:nonzero;fill:rgb(100%,100%,100%);fill-opacity:1;" d="M 17.394531 2.882812 L 17.5 2.882812 L 17.5 4.210938 C 17.484375 4.347656 17.421875 4.476562 17.324219 4.570312 C 17.15625 4.746094 16.902344 4.796875 16.679688 4.703125 C 16.460938 4.609375 16.316406 4.390625 16.316406 4.144531 L 16.316406 2.882812 L 16.417969 2.882812 L 16.417969 4.144531 C 16.425781 4.414062 16.644531 4.628906 16.90625 4.628906 C 17.171875 4.628906 17.386719 4.414062 17.394531 4.144531 Z M 17.394531 2.882812 "/>
<path style=" stroke:none;fill-rule:nonzero;fill:rgb(100%,100%,100%);fill-opacity:1;" d="M 17.835938 2.882812 L 17.949219 2.882812 L 18.878906 4.527344 L 18.878906 2.882812 L 18.980469 2.882812 L 18.980469 4.734375 L 18.878906 4.734375 L 17.9375 3.070312 L 17.9375 4.734375 L 17.835938 4.734375 Z M 17.835938 2.882812 "/>
<path style=" stroke:none;fill-rule:nonzero;fill:rgb(100%,100%,100%);fill-opacity:1;" d="M 10.542969 6.675781 C 10.667969 6.578125 10.777344 6.496094 10.871094 6.421875 C 10.96875 6.347656 11.058594 6.265625 11.140625 6.175781 C 11.21875 6.089844 11.265625 5.972656 11.261719 5.855469 C 11.261719 5.621094 11.082031 5.429688 10.855469 5.414062 C 10.625 5.402344 10.425781 5.574219 10.398438 5.804688 L 10.296875 5.769531 C 10.3125 5.652344 10.367188 5.546875 10.449219 5.464844 C 10.601562 5.308594 10.832031 5.257812 11.035156 5.34375 C 11.238281 5.429688 11.367188 5.628906 11.371094 5.851562 C 11.371094 6 11.316406 6.140625 11.214844 6.25 C 11.136719 6.332031 11.054688 6.410156 10.964844 6.476562 L 10.640625 6.722656 C 10.527344 6.804688 10.449219 6.925781 10.417969 7.066406 L 11.371094 7.066406 L 11.371094 7.171875 L 10.300781 7.171875 C 10.335938 6.933594 10.417969 6.769531 10.542969 6.675781 Z M 10.542969 6.675781 "/>
<path style=" stroke:none;fill-rule:nonzero;fill:rgb(100%,100%,100%);fill-opacity:1;" d="M 12.867188 6.574219 C 12.867188 6.925781 12.589844 7.207031 12.246094 7.207031 C 11.902344 7.207031 11.625 6.925781 11.625 6.574219 L 11.625 5.960938 C 11.625 5.609375 11.902344 5.328125 12.246094 5.328125 C 12.589844 5.328125 12.867188 5.609375 12.867188 5.960938 Z M 12.761719 5.960938 C 12.753906 5.675781 12.523438 5.453125 12.246094 5.453125 C 11.96875 5.453125 11.742188 5.675781 11.734375 5.960938 L 11.734375 6.574219 C 11.742188 6.855469 11.96875 7.082031 12.246094 7.082031 C 12.523438 7.082031 12.753906 6.855469 12.761719 6.574219 Z M 12.761719 5.960938 "/>
<path style=" stroke:none;fill-rule:nonzero;fill:rgb(100%,100%,100%);fill-opacity:1;" d="M 13.371094 6.675781 L 13.703125 6.421875 C 13.796875 6.347656 13.886719 6.265625 13.96875 6.175781 C 14.050781 6.089844 14.09375 5.972656 14.09375 5.855469 C 14.089844 5.621094 13.910156 5.429688 13.683594 5.414062 C 13.453125 5.402344 13.253906 5.574219 13.226562 5.804688 L 13.125 5.769531 C 13.144531 5.652344 13.195312 5.546875 13.277344 5.464844 C 13.429688 5.308594 13.664062 5.261719 13.863281 5.34375 C 14.066406 5.429688 14.199219 5.628906 14.199219 5.851562 C 14.199219 6 14.144531 6.140625 14.042969 6.25 C 13.96875 6.332031 13.882812 6.410156 13.792969 6.476562 L 13.472656 6.722656 C 13.355469 6.804688 13.277344 6.925781 13.246094 7.066406 L 14.199219 7.066406 L 14.199219 7.171875 L 13.132812 7.171875 C 13.164062 6.933594 13.246094 6.769531 13.371094 6.675781 Z M 13.371094 6.675781 "/>
<path style=" stroke:none;fill-rule:nonzero;fill:rgb(100%,100%,100%);fill-opacity:1;" d="M 14.785156 6.675781 C 14.910156 6.578125 15.019531 6.496094 15.117188 6.421875 C 15.210938 6.347656 15.300781 6.265625 15.382812 6.175781 C 15.464844 6.089844 15.507812 5.972656 15.507812 5.855469 C 15.503906 5.621094 15.328125 5.429688 15.097656 5.414062 C 14.867188 5.402344 14.667969 5.574219 14.644531 5.804688 L 14.539062 5.769531 C 14.558594 5.652344 14.609375 5.546875 14.691406 5.464844 C 14.84375 5.304688 15.078125 5.257812 15.28125 5.339844 C 15.484375 5.425781 15.617188 5.628906 15.617188 5.851562 C 15.617188 6 15.5625 6.140625 15.460938 6.25 C 15.382812 6.332031 15.300781 6.410156 15.210938 6.476562 L 14.886719 6.722656 C 14.773438 6.804688 14.695312 6.925781 14.664062 7.066406 L 15.617188 7.066406 L 15.617188 7.171875 L 14.546875 7.171875 C 14.582031 6.933594 14.660156 6.769531 14.785156 6.675781 Z M 14.785156 6.675781 "/>
</g>
</svg>
